<?xml version="1.0" encoding="iso-8859-1"?>
<!-- Generator: Adobe Illustrator 19.0.0, SVG Export Plug-In . SVG Version: 6.00 Build 0)  -->
<svg version="1.1" id="Layer_1" xmlns="http://www.w3.org/2000/svg" xmlns:xlink="http://www.w3.org/1999/xlink" x="0px" y="0px"
	 viewBox="0 0 512 512" style="enable-background:new 0 0 512 512;" xml:space="preserve">
<path style="fill:#9FD25A;" d="M336.642,0H158.381c-4.395,0-7.958,3.562-7.958,7.958v190.995c0,4.278,3.666,7.958,7.957,7.958
	c2.212,0,4.378-0.924,5.917-2.634l35.827-39.81h136.519c4.395,0,7.958-3.562,7.958-7.958V7.958C344.601,3.562,341.037,0,336.642,0z"
	/>
<path style="fill:#6EAD32;" d="M161.564,198.953V7.958c0-4.396,3.563-7.958,7.958-7.958h-11.141c-4.395,0-7.958,3.562-7.958,7.958
	v190.995c0,4.278,3.666,7.958,7.957,7.958c2.057,0,4.067-0.809,5.577-2.295C162.465,203.15,161.564,201.132,161.564,198.953z"/>
<path style="fill:#FFFFFF;" d="M237.962,119.372c-2.716,0-5.432-1.037-7.503-3.108l-35.016-35.016
	c-4.144-4.144-4.144-10.862,0-15.007c4.144-4.142,10.862-4.142,15.007,0l27.569,27.57l62.529-61.582
	c4.175-4.111,10.895-4.06,15.006,0.115c4.112,4.175,4.061,10.893-0.115,15.006l-70.031,68.97
	C243.341,118.355,240.652,119.372,237.962,119.372z"/>
<path style="fill:#E0DDDF;" d="M213.026,220.175H102.674c-4.396,0-7.958,3.562-7.958,7.958V450.96
	c0,33.643,27.37,61.012,61.012,61.012h4.244c33.643,0,61.012-27.37,61.012-61.012V228.133
	C220.984,223.737,217.422,220.175,213.026,220.175z"/>
<path style="fill:#FF675C;" d="M94.716,313.197V450.96c0,33.643,27.37,61.012,61.012,61.012h4.244
	c33.643,0,61.012-27.37,61.012-61.012V313.197H94.716z"/>
<path style="fill:#C1BCBF;" d="M220.984,248.293v-20.161c0-4.395-3.563-7.958-7.958-7.958H102.674c-4.395,0-7.958,3.563-7.958,7.958
	V450.96c0,33.696,27.317,61.012,61.012,61.012h4.244c3.341,0,6.618-0.281,9.815-0.8c-28.991-4.709-51.197-29.911-51.197-60.212
	V253.599c0-2.93,2.376-5.305,5.305-5.305H220.984z"/>
<path style="fill:#DB3D5A;" d="M163.979,511.826c1.945-0.126,3.884-0.35,5.808-0.655c-28.991-4.709-51.197-29.911-51.197-60.212
	V313.197H94.716V450.96c0,33.643,27.37,61.012,61.012,61.012C158.461,512.029,161.243,512.01,163.979,511.826
	C164.469,511.794,163.577,511.854,163.979,511.826z"/>
<path style="fill:#E0DDDF;" d="M234.248,236.091H81.452c-4.396,0-7.958-3.562-7.958-7.958s3.562-7.958,7.958-7.958h152.796
	c4.396,0,7.958,3.562,7.958,7.958S238.644,236.091,234.248,236.091z"/>
<rect x="165.805" y="220.175" style="fill:#F9F8F9;" width="24.758" height="15.916"/>
<g>
	<path style="fill:#736770;" d="M144.586,300.286c0-4.396-3.562-7.958-7.958-7.958H94.716v15.916h41.913
		C141.024,308.245,144.586,304.682,144.586,300.286z"/>
	<path style="fill:#736770;" d="M144.586,338.485c0-4.396-3.562-7.958-7.958-7.958H94.716v15.916h41.913
		C141.024,346.444,144.586,342.881,144.586,338.485z"/>
	<path style="fill:#736770;" d="M144.586,376.684c0-4.396-3.562-7.958-7.958-7.958H94.716v15.916h41.913
		C141.024,384.642,144.586,381.08,144.586,376.684z"/>
	<path style="fill:#736770;" d="M144.586,414.883c0-4.396-3.562-7.958-7.958-7.958H94.716v15.916h41.913
		C141.024,422.841,144.586,419.279,144.586,414.883z"/>
</g>
<g>
	<circle style="fill:#DB3D5A;" cx="170.58" cy="344.852" r="10.08"/>
	<circle style="fill:#DB3D5A;" cx="201.351" cy="381.99" r="10.08"/>
	<circle style="fill:#DB3D5A;" cx="170.58" cy="410.639" r="10.08"/>
	<circle style="fill:#DB3D5A;" cx="170.58" cy="470.06" r="10.08"/>
	<circle style="fill:#DB3D5A;" cx="201.351" cy="439.288" r="10.08"/>
</g>
<path style="fill:#E0DDDF;" d="M409.327,220.175H298.974c-4.396,0-7.958,3.562-7.958,7.958V450.96
	c0,33.643,27.37,61.012,61.012,61.012h4.244c33.643,0,61.012-27.37,61.012-61.012V228.133
	C417.285,223.737,413.723,220.175,409.327,220.175z"/>
<path style="fill:#FAEC8E;" d="M291.016,273.582V450.96c0,33.643,27.37,61.012,61.012,61.012h4.244
	c33.643,0,61.012-27.37,61.012-61.012V273.582H291.016z"/>
<path style="fill:#C1BCBF;" d="M417.285,248.293v-20.161c0-4.395-3.563-7.958-7.958-7.958H298.974c-4.395,0-7.958,3.563-7.958,7.958
	V450.96c0,33.696,27.316,61.012,61.012,61.012h4.244c3.341,0,6.618-0.281,9.815-0.8c-28.991-4.709-51.197-29.911-51.197-60.212
	V253.599c0-2.93,2.376-5.305,5.305-5.305H417.285z"/>
<path style="fill:#FBC96C;" d="M360.279,511.826c1.945-0.126,3.884-0.35,5.808-0.655c-28.991-4.709-51.197-29.911-51.197-60.212
	V273.582h-23.874V450.96c0,33.643,27.37,61.012,61.012,61.012C354.762,512.029,357.544,512.01,360.279,511.826
	C360.769,511.794,359.877,511.854,360.279,511.826z"/>
<path style="fill:#E0DDDF;" d="M430.548,236.091H277.752c-4.396,0-7.958-3.562-7.958-7.958s3.562-7.958,7.958-7.958h152.796
	c4.396,0,7.958,3.562,7.958,7.958S434.944,236.091,430.548,236.091z"/>
<rect x="365.999" y="220.175" style="fill:#F9F8F9;" width="25.466" height="15.916"/>
<g>
	<path style="fill:#736770;" d="M340.887,300.286c0-4.396-3.562-7.958-7.958-7.958h-41.913v15.916h41.913
		C337.325,308.245,340.887,304.682,340.887,300.286z"/>
	<path style="fill:#736770;" d="M340.887,338.485c0-4.396-3.562-7.958-7.958-7.958h-41.913v15.916h41.913
		C337.325,346.444,340.887,342.881,340.887,338.485z"/>
	<path style="fill:#736770;" d="M340.887,376.684c0-4.396-3.562-7.958-7.958-7.958h-41.913v15.916h41.913
		C337.325,384.642,340.887,381.08,340.887,376.684z"/>
	<path style="fill:#736770;" d="M340.887,414.883c0-4.396-3.562-7.958-7.958-7.958h-41.913v15.916h41.913
		C337.325,422.841,340.887,419.279,340.887,414.883z"/>
</g>
<g>
	<circle style="fill:#FBC96C;" cx="363.697" cy="303.47" r="10.08"/>
	<circle style="fill:#FBC96C;" cx="394.468" cy="340.608" r="10.08"/>
	<circle style="fill:#FBC96C;" cx="363.697" cy="369.257" r="10.08"/>
	<circle style="fill:#FBC96C;" cx="363.697" cy="428.677" r="10.08"/>
	<circle style="fill:#FBC96C;" cx="394.468" cy="397.906" r="10.08"/>
	<circle style="fill:#FBC96C;" cx="394.468" cy="463.693" r="10.08"/>
</g>
<g>
</g>
<g>
</g>
<g>
</g>
<g>
</g>
<g>
</g>
<g>
</g>
<g>
</g>
<g>
</g>
<g>
</g>
<g>
</g>
<g>
</g>
<g>
</g>
<g>
</g>
<g>
</g>
<g>
</g>
</svg>
