<svg width="512" height="512" viewBox="0 0 512 512" fill="none" xmlns="http://www.w3.org/2000/svg">
<g id="Mask group">
<g id="blood-drop-svgrepo-com 1">
<path id="Vector" d="M450.207 317.793C450.207 425.05 363.256 512 256 512C148.743 512 61.793 425.05 61.793 317.793C61.793 176.552 256 0 256 0C256 0 450.207 176.552 450.207 317.793Z" fill="#FAE100"/>
<path id="Vector_2" d="M450.207 317.793C450.207 425.05 363.256 512 256 512C256 300.138 256 0 256 0C256 0 450.207 176.552 450.207 317.793Z" fill="#FFB81C"/>
<path id="Vector_3" d="M336.92 285.425H288.368V236.873H223.632V285.425H175.08V350.161H223.632V398.712H288.368V350.161H336.92V285.425Z" fill="white"/>
</g>
</g>
</svg>
